<svg xmlns="http://www.w3.org/2000/svg" viewBox="0 0 1000 328.48"><defs><style>.cls-1{fill:#1ce783;fill-rule:evenodd;}</style></defs><g id="Layer_2" data-name="Layer 2"><g id="Layer_1-2" data-name="Layer 1"><g id="Layer_2-2" data-name="Layer 2"><g id="Layer_1-2-2" data-name="Layer 1-2"><path class="cls-1" d="M157.18,102.5H106.25c-17.87,0-26.86,4.82-26.86,4.82V0H0V328.48H79.39V195.94a21.25,21.25,0,0,1,21.29-21.22H146.9a21.23,21.23,0,0,1,21.27,21.19V328.48h79.42V185.67C247.59,125.61,207.45,102.5,157.18,102.5Zm763.39,0V235a21.24,21.24,0,0,1-21.24,21.24H853.1A21.24,21.24,0,0,1,831.83,235V102.5H752.39V241.65c0,56.87,36.49,86.83,90.43,86.83h77.77v-.41c49.68,0,79.41-35.24,79.41-86.42V102.5ZM472.57,235a21.24,21.24,0,0,1-21.26,21.24H405.07A21.24,21.24,0,0,1,383.8,235V102.5H304.37V241.65c0,56.87,36.5,86.83,90.43,86.83h77.77v-.41c49.69,0,79.43-35.24,79.43-86.42V102.5H472.57Zm140,93.45H692V0H612.52Z"/></g></g></g></g></svg>